<mxfile host="app.diagrams.net" modified="2024-01-22T16:08:44.733Z" agent="Mozilla/5.0 (Windows NT 10.0; Win64; x64) AppleWebKit/537.36 (KHTML, like Gecko) Chrome/120.0.0.0 Safari/537.36" etag="NkDvhGT2oZ9tKpQlFzn9" version="22.1.21" type="github">
  <diagram name="Page-1" id="nhMCtWs9aOEQ2wft9k-o">
    <mxGraphModel dx="1687" dy="936" grid="1" gridSize="10" guides="1" tooltips="1" connect="1" arrows="1" fold="1" page="1" pageScale="1" pageWidth="850" pageHeight="1100" math="0" shadow="0">
      <root>
        <object label="" id="0">
          <mxCell />
        </object>
        <mxCell id="1" parent="0" />
        <mxCell id="SezpZ-dLGQGYYTsxY6-B-2" value="Lab 1 Class Diagram" style="shape=umlFrame;whiteSpace=wrap;html=1;rounded=0;shadow=0;comic=0;labelBackgroundColor=none;strokeWidth=1;fontFamily=Verdana;fontSize=10;align=center;width=160;height=40;" parent="1" vertex="1">
          <mxGeometry x="40" y="40" width="280" height="270" as="geometry" />
        </mxCell>
        <mxCell id="SezpZ-dLGQGYYTsxY6-B-6" style="edgeStyle=orthogonalEdgeStyle;rounded=0;orthogonalLoop=1;jettySize=auto;html=1;exitX=0.5;exitY=1;exitDx=0;exitDy=0;entryX=0.5;entryY=0;entryDx=0;entryDy=0;" parent="1" edge="1">
          <mxGeometry relative="1" as="geometry">
            <mxPoint x="1410" y="725" as="sourcePoint" />
          </mxGeometry>
        </mxCell>
        <mxCell id="SezpZ-dLGQGYYTsxY6-B-7" value="&lt;p style=&quot;margin:0px;margin-top:4px;text-align:center;&quot;&gt;main.py&lt;/p&gt;&lt;hr size=&quot;1&quot;&gt;&lt;div&gt;+ bool1:int&lt;br&gt;&lt;/div&gt;&lt;div&gt;+ bool2:int&lt;/div&gt;&lt;hr size=&quot;1&quot;&gt;&lt;div&gt;+ implication(self):void&lt;/div&gt;&lt;div&gt;&lt;div&gt;+ equality(self):void&lt;/div&gt;&lt;/div&gt;&lt;div&gt;&lt;div&gt;&lt;div&gt;&lt;div&gt;+ disjunction(self):void&lt;/div&gt;+ nand(self):void&lt;/div&gt;+ nor(self):void&lt;/div&gt;&lt;/div&gt;&lt;div&gt;&lt;br&gt;&lt;/div&gt;" style="verticalAlign=top;align=left;overflow=fill;fontSize=12;fontFamily=Helvetica;html=1;rounded=0;shadow=0;comic=0;labelBackgroundColor=none;strokeWidth=1" parent="1" vertex="1">
          <mxGeometry x="80" y="120" width="200" height="160" as="geometry" />
        </mxCell>
        <mxCell id="SezpZ-dLGQGYYTsxY6-B-8" style="edgeStyle=orthogonalEdgeStyle;rounded=0;orthogonalLoop=1;jettySize=auto;html=1;exitX=0.5;exitY=1;exitDx=0;exitDy=0;entryX=0.5;entryY=0;entryDx=0;entryDy=0;" parent="1" edge="1">
          <mxGeometry relative="1" as="geometry">
            <mxPoint x="1410" y="830" as="targetPoint" />
          </mxGeometry>
        </mxCell>
        <mxCell id="SezpZ-dLGQGYYTsxY6-B-98" value="Lab 1 Flow Chart" style="shape=umlFrame;whiteSpace=wrap;html=1;rounded=0;shadow=0;comic=0;labelBackgroundColor=none;strokeWidth=1;fontFamily=Verdana;fontSize=10;align=center;width=160;height=40;strokeColor=default;connectable=0;allowArrows=0;" parent="1" vertex="1">
          <mxGeometry x="40" y="310" width="770" height="950" as="geometry" />
        </mxCell>
        <mxCell id="AhveICruEw0RoNRh5vqJ-1" style="edgeStyle=none;curved=1;rounded=0;orthogonalLoop=1;jettySize=auto;html=1;fontSize=12;startSize=8;endSize=8;" edge="1" parent="1" source="SezpZ-dLGQGYYTsxY6-B-99" target="SezpZ-dLGQGYYTsxY6-B-102">
          <mxGeometry relative="1" as="geometry" />
        </mxCell>
        <mxCell id="SezpZ-dLGQGYYTsxY6-B-99" value="Input(bool2)" style="rounded=1;whiteSpace=wrap;html=1;fontSize=16;" parent="1" vertex="1">
          <mxGeometry x="80" y="440" width="120" height="40" as="geometry" />
        </mxCell>
        <mxCell id="SezpZ-dLGQGYYTsxY6-B-101" style="edgeStyle=none;curved=1;rounded=0;orthogonalLoop=1;jettySize=auto;html=1;fontSize=12;startSize=8;endSize=8;" parent="1" source="SezpZ-dLGQGYYTsxY6-B-100" target="SezpZ-dLGQGYYTsxY6-B-99" edge="1">
          <mxGeometry relative="1" as="geometry" />
        </mxCell>
        <mxCell id="SezpZ-dLGQGYYTsxY6-B-100" value="Input(bool1)" style="rounded=1;whiteSpace=wrap;html=1;fontSize=16;" parent="1" vertex="1">
          <mxGeometry x="80" y="360" width="120" height="40" as="geometry" />
        </mxCell>
        <mxCell id="AhveICruEw0RoNRh5vqJ-2" value="bool1 is true, bool2 is true;&lt;br&gt;bool 1 is false, bool2 is true;&lt;br&gt;bool 1 is false, bool2 is false;" style="edgeStyle=none;curved=1;rounded=0;orthogonalLoop=1;jettySize=auto;html=1;exitX=0.5;exitY=0;exitDx=0;exitDy=0;entryX=0;entryY=0.5;entryDx=0;entryDy=0;fontSize=12;startSize=8;endSize=8;" edge="1" parent="1" source="SezpZ-dLGQGYYTsxY6-B-102" target="SezpZ-dLGQGYYTsxY6-B-112">
          <mxGeometry relative="1" as="geometry" />
        </mxCell>
        <mxCell id="AhveICruEw0RoNRh5vqJ-3" value="bool1 is true, bool2 is false;" style="edgeStyle=none;curved=1;rounded=0;orthogonalLoop=1;jettySize=auto;html=1;exitX=0.5;exitY=1;exitDx=0;exitDy=0;entryX=0;entryY=0.5;entryDx=0;entryDy=0;fontSize=12;startSize=8;endSize=8;" edge="1" parent="1" source="SezpZ-dLGQGYYTsxY6-B-102" target="SezpZ-dLGQGYYTsxY6-B-113">
          <mxGeometry relative="1" as="geometry" />
        </mxCell>
        <mxCell id="SezpZ-dLGQGYYTsxY6-B-102" value="&lt;font style=&quot;font-size: 14px;&quot;&gt;bool1 â‡’ bool2&lt;/font&gt;" style="rhombus;whiteSpace=wrap;html=1;fontSize=16;" parent="1" vertex="1">
          <mxGeometry x="250" y="420" width="80" height="80" as="geometry" />
        </mxCell>
        <mxCell id="SezpZ-dLGQGYYTsxY6-B-126" value="bool1 is true, bool2 is true;&lt;br&gt;bool1 is false, bool2 is false;" style="edgeStyle=none;curved=1;rounded=0;orthogonalLoop=1;jettySize=auto;html=1;exitX=0.5;exitY=0;exitDx=0;exitDy=0;entryX=0;entryY=0.5;entryDx=0;entryDy=0;fontSize=12;startSize=8;endSize=8;" parent="1" source="SezpZ-dLGQGYYTsxY6-B-103" edge="1">
          <mxGeometry relative="1" as="geometry">
            <mxPoint x="530" y="599" as="targetPoint" />
          </mxGeometry>
        </mxCell>
        <mxCell id="SezpZ-dLGQGYYTsxY6-B-128" value="bool1 is true, bool2 is false;&lt;br&gt;bool1 is false, bool2 is true;" style="edgeStyle=none;curved=1;rounded=0;orthogonalLoop=1;jettySize=auto;html=1;exitX=0.5;exitY=1;exitDx=0;exitDy=0;entryX=0;entryY=1;entryDx=0;entryDy=0;fontSize=12;startSize=8;endSize=8;" parent="1" source="SezpZ-dLGQGYYTsxY6-B-103" edge="1">
          <mxGeometry relative="1" as="geometry">
            <mxPoint x="530" y="680" as="targetPoint" />
          </mxGeometry>
        </mxCell>
        <mxCell id="SezpZ-dLGQGYYTsxY6-B-103" value="&lt;font style=&quot;font-size: 14px;&quot;&gt;bool1 = bool2&lt;/font&gt;" style="rhombus;whiteSpace=wrap;html=1;fontSize=16;" parent="1" vertex="1">
          <mxGeometry x="200" y="599" width="80" height="80" as="geometry" />
        </mxCell>
        <mxCell id="SezpZ-dLGQGYYTsxY6-B-112" value="print True" style="rounded=1;whiteSpace=wrap;html=1;fontSize=16;" parent="1" vertex="1">
          <mxGeometry x="560" y="400" width="80" height="40" as="geometry" />
        </mxCell>
        <mxCell id="SezpZ-dLGQGYYTsxY6-B-113" value="print False" style="rounded=1;whiteSpace=wrap;html=1;fontSize=16;" parent="1" vertex="1">
          <mxGeometry x="560" y="480" width="80" height="40" as="geometry" />
        </mxCell>
        <mxCell id="SezpZ-dLGQGYYTsxY6-B-114" value="print True" style="rounded=1;whiteSpace=wrap;html=1;fontSize=16;" parent="1" vertex="1">
          <mxGeometry x="530" y="579" width="80" height="40" as="geometry" />
        </mxCell>
        <mxCell id="AhveICruEw0RoNRh5vqJ-6" value="" style="endArrow=classic;html=1;rounded=0;fontSize=12;startSize=8;endSize=8;curved=0;" edge="1" parent="1">
          <mxGeometry width="50" height="50" relative="1" as="geometry">
            <mxPoint x="680" y="420" as="sourcePoint" />
            <mxPoint x="200" y="640" as="targetPoint" />
            <Array as="points">
              <mxPoint x="680" y="560" />
              <mxPoint x="120" y="560" />
              <mxPoint x="120" y="640" />
            </Array>
          </mxGeometry>
        </mxCell>
        <mxCell id="AhveICruEw0RoNRh5vqJ-9" value="" style="endArrow=none;html=1;rounded=0;fontSize=12;startSize=8;endSize=8;curved=1;exitX=1;exitY=0.5;exitDx=0;exitDy=0;" edge="1" parent="1" source="SezpZ-dLGQGYYTsxY6-B-113">
          <mxGeometry width="50" height="50" relative="1" as="geometry">
            <mxPoint x="640" y="550" as="sourcePoint" />
            <mxPoint x="680" y="500" as="targetPoint" />
          </mxGeometry>
        </mxCell>
        <mxCell id="AhveICruEw0RoNRh5vqJ-10" value="" style="endArrow=none;html=1;rounded=0;fontSize=12;startSize=8;endSize=8;curved=1;exitX=1;exitY=0.5;exitDx=0;exitDy=0;" edge="1" parent="1" source="SezpZ-dLGQGYYTsxY6-B-112">
          <mxGeometry width="50" height="50" relative="1" as="geometry">
            <mxPoint x="650" y="510" as="sourcePoint" />
            <mxPoint x="680" y="420" as="targetPoint" />
          </mxGeometry>
        </mxCell>
        <mxCell id="AhveICruEw0RoNRh5vqJ-12" value="print False" style="rounded=1;whiteSpace=wrap;html=1;fontSize=16;" vertex="1" parent="1">
          <mxGeometry x="530" y="660" width="80" height="40" as="geometry" />
        </mxCell>
        <mxCell id="AhveICruEw0RoNRh5vqJ-13" value="" style="endArrow=classic;html=1;rounded=0;fontSize=12;startSize=8;endSize=8;curved=0;" edge="1" parent="1">
          <mxGeometry width="50" height="50" relative="1" as="geometry">
            <mxPoint x="650" y="599" as="sourcePoint" />
            <mxPoint x="200" y="820" as="targetPoint" />
            <Array as="points">
              <mxPoint x="650" y="739" />
              <mxPoint x="120" y="740" />
              <mxPoint x="120" y="820" />
            </Array>
          </mxGeometry>
        </mxCell>
        <mxCell id="AhveICruEw0RoNRh5vqJ-14" value="" style="endArrow=none;html=1;rounded=0;fontSize=12;startSize=8;endSize=8;curved=1;exitX=1;exitY=0.5;exitDx=0;exitDy=0;" edge="1" parent="1">
          <mxGeometry width="50" height="50" relative="1" as="geometry">
            <mxPoint x="610" y="679" as="sourcePoint" />
            <mxPoint x="650" y="679" as="targetPoint" />
          </mxGeometry>
        </mxCell>
        <mxCell id="AhveICruEw0RoNRh5vqJ-15" value="" style="endArrow=none;html=1;rounded=0;fontSize=12;startSize=8;endSize=8;curved=1;exitX=1;exitY=0.5;exitDx=0;exitDy=0;" edge="1" parent="1">
          <mxGeometry width="50" height="50" relative="1" as="geometry">
            <mxPoint x="610" y="599" as="sourcePoint" />
            <mxPoint x="650" y="599" as="targetPoint" />
          </mxGeometry>
        </mxCell>
        <mxCell id="AhveICruEw0RoNRh5vqJ-20" value="bool1 is true, bool2 is false;&lt;br&gt;bool1 is false, bool2 is true;" style="edgeStyle=none;curved=1;rounded=0;orthogonalLoop=1;jettySize=auto;html=1;exitX=0.5;exitY=0;exitDx=0;exitDy=0;entryX=0;entryY=0.5;entryDx=0;entryDy=0;fontSize=12;startSize=8;endSize=8;" edge="1" parent="1" source="AhveICruEw0RoNRh5vqJ-22">
          <mxGeometry relative="1" as="geometry">
            <mxPoint x="530" y="780" as="targetPoint" />
          </mxGeometry>
        </mxCell>
        <mxCell id="AhveICruEw0RoNRh5vqJ-21" value="bool1 is true, bool2 is true;&lt;br&gt;bool1 is false, bool2 is false;" style="edgeStyle=none;curved=1;rounded=0;orthogonalLoop=1;jettySize=auto;html=1;exitX=0.5;exitY=1;exitDx=0;exitDy=0;entryX=0;entryY=1;entryDx=0;entryDy=0;fontSize=12;startSize=8;endSize=8;" edge="1" parent="1" source="AhveICruEw0RoNRh5vqJ-22">
          <mxGeometry relative="1" as="geometry">
            <mxPoint x="530" y="861" as="targetPoint" />
          </mxGeometry>
        </mxCell>
        <mxCell id="AhveICruEw0RoNRh5vqJ-22" value="&lt;font style=&quot;font-size: 14px;&quot;&gt;bool1&amp;nbsp;âŠ• bool2&lt;/font&gt;" style="rhombus;whiteSpace=wrap;html=1;fontSize=16;" vertex="1" parent="1">
          <mxGeometry x="200" y="780" width="80" height="80" as="geometry" />
        </mxCell>
        <mxCell id="AhveICruEw0RoNRh5vqJ-23" value="print True" style="rounded=1;whiteSpace=wrap;html=1;fontSize=16;" vertex="1" parent="1">
          <mxGeometry x="530" y="760" width="80" height="40" as="geometry" />
        </mxCell>
        <mxCell id="AhveICruEw0RoNRh5vqJ-24" value="print False" style="rounded=1;whiteSpace=wrap;html=1;fontSize=16;" vertex="1" parent="1">
          <mxGeometry x="530" y="841" width="80" height="40" as="geometry" />
        </mxCell>
        <mxCell id="AhveICruEw0RoNRh5vqJ-25" value="" style="endArrow=classic;html=1;rounded=0;fontSize=12;startSize=8;endSize=8;curved=0;" edge="1" parent="1">
          <mxGeometry width="50" height="50" relative="1" as="geometry">
            <mxPoint x="650" y="780" as="sourcePoint" />
            <mxPoint x="200" y="1001" as="targetPoint" />
            <Array as="points">
              <mxPoint x="650" y="920" />
              <mxPoint x="120" y="921" />
              <mxPoint x="120" y="1001" />
            </Array>
          </mxGeometry>
        </mxCell>
        <mxCell id="AhveICruEw0RoNRh5vqJ-26" value="" style="endArrow=none;html=1;rounded=0;fontSize=12;startSize=8;endSize=8;curved=1;exitX=1;exitY=0.5;exitDx=0;exitDy=0;" edge="1" parent="1">
          <mxGeometry width="50" height="50" relative="1" as="geometry">
            <mxPoint x="610" y="860" as="sourcePoint" />
            <mxPoint x="650" y="860" as="targetPoint" />
          </mxGeometry>
        </mxCell>
        <mxCell id="AhveICruEw0RoNRh5vqJ-27" value="" style="endArrow=none;html=1;rounded=0;fontSize=12;startSize=8;endSize=8;curved=1;exitX=1;exitY=0.5;exitDx=0;exitDy=0;" edge="1" parent="1">
          <mxGeometry width="50" height="50" relative="1" as="geometry">
            <mxPoint x="610" y="780" as="sourcePoint" />
            <mxPoint x="650" y="780" as="targetPoint" />
          </mxGeometry>
        </mxCell>
        <mxCell id="AhveICruEw0RoNRh5vqJ-28" value="bool1 is true, bool2 is false;&lt;br&gt;bool1 is false, bool2 is true;&lt;br&gt;bool1 is false, bool2 is false;" style="edgeStyle=none;curved=1;rounded=0;orthogonalLoop=1;jettySize=auto;html=1;exitX=0.5;exitY=0;exitDx=0;exitDy=0;entryX=0;entryY=0.5;entryDx=0;entryDy=0;fontSize=12;startSize=8;endSize=8;" edge="1" parent="1" source="AhveICruEw0RoNRh5vqJ-30">
          <mxGeometry relative="1" as="geometry">
            <mxPoint x="530" y="960" as="targetPoint" />
          </mxGeometry>
        </mxCell>
        <mxCell id="AhveICruEw0RoNRh5vqJ-29" value="bool1 is true, bool2 is true;" style="edgeStyle=none;curved=1;rounded=0;orthogonalLoop=1;jettySize=auto;html=1;exitX=0.5;exitY=1;exitDx=0;exitDy=0;entryX=0;entryY=1;entryDx=0;entryDy=0;fontSize=12;startSize=8;endSize=8;" edge="1" parent="1" source="AhveICruEw0RoNRh5vqJ-30">
          <mxGeometry relative="1" as="geometry">
            <mxPoint x="530" y="1041" as="targetPoint" />
          </mxGeometry>
        </mxCell>
        <mxCell id="AhveICruEw0RoNRh5vqJ-30" value="&lt;font style=&quot;font-size: 14px;&quot;&gt;bool1 | bool2&lt;/font&gt;" style="rhombus;whiteSpace=wrap;html=1;fontSize=16;" vertex="1" parent="1">
          <mxGeometry x="200" y="960" width="80" height="80" as="geometry" />
        </mxCell>
        <mxCell id="AhveICruEw0RoNRh5vqJ-31" value="print True" style="rounded=1;whiteSpace=wrap;html=1;fontSize=16;" vertex="1" parent="1">
          <mxGeometry x="530" y="940" width="80" height="40" as="geometry" />
        </mxCell>
        <mxCell id="AhveICruEw0RoNRh5vqJ-32" value="print False" style="rounded=1;whiteSpace=wrap;html=1;fontSize=16;" vertex="1" parent="1">
          <mxGeometry x="530" y="1021" width="80" height="40" as="geometry" />
        </mxCell>
        <mxCell id="AhveICruEw0RoNRh5vqJ-33" value="" style="endArrow=classic;html=1;rounded=0;fontSize=12;startSize=8;endSize=8;curved=0;" edge="1" parent="1">
          <mxGeometry width="50" height="50" relative="1" as="geometry">
            <mxPoint x="650" y="960" as="sourcePoint" />
            <mxPoint x="200" y="1181" as="targetPoint" />
            <Array as="points">
              <mxPoint x="650" y="1100" />
              <mxPoint x="120" y="1101" />
              <mxPoint x="120" y="1181" />
            </Array>
          </mxGeometry>
        </mxCell>
        <mxCell id="AhveICruEw0RoNRh5vqJ-34" value="" style="endArrow=none;html=1;rounded=0;fontSize=12;startSize=8;endSize=8;curved=1;exitX=1;exitY=0.5;exitDx=0;exitDy=0;" edge="1" parent="1">
          <mxGeometry width="50" height="50" relative="1" as="geometry">
            <mxPoint x="610" y="1040" as="sourcePoint" />
            <mxPoint x="650" y="1040" as="targetPoint" />
          </mxGeometry>
        </mxCell>
        <mxCell id="AhveICruEw0RoNRh5vqJ-35" value="" style="endArrow=none;html=1;rounded=0;fontSize=12;startSize=8;endSize=8;curved=1;exitX=1;exitY=0.5;exitDx=0;exitDy=0;" edge="1" parent="1">
          <mxGeometry width="50" height="50" relative="1" as="geometry">
            <mxPoint x="610" y="960" as="sourcePoint" />
            <mxPoint x="650" y="960" as="targetPoint" />
          </mxGeometry>
        </mxCell>
        <mxCell id="AhveICruEw0RoNRh5vqJ-36" value="bool1 is false, bool2 is false;" style="edgeStyle=none;curved=1;rounded=0;orthogonalLoop=1;jettySize=auto;html=1;exitX=0.5;exitY=0;exitDx=0;exitDy=0;entryX=0;entryY=0.5;entryDx=0;entryDy=0;fontSize=12;startSize=8;endSize=8;" edge="1" parent="1" source="AhveICruEw0RoNRh5vqJ-38">
          <mxGeometry relative="1" as="geometry">
            <mxPoint x="530" y="1140" as="targetPoint" />
          </mxGeometry>
        </mxCell>
        <mxCell id="AhveICruEw0RoNRh5vqJ-37" value="bool1 is true, bool2 is true;&lt;br&gt;bool1 is true, bool2 is false;&lt;br&gt;bool1 is false, bool2 is true;" style="edgeStyle=none;curved=1;rounded=0;orthogonalLoop=1;jettySize=auto;html=1;exitX=0.5;exitY=1;exitDx=0;exitDy=0;entryX=0;entryY=1;entryDx=0;entryDy=0;fontSize=12;startSize=8;endSize=8;" edge="1" parent="1" source="AhveICruEw0RoNRh5vqJ-38">
          <mxGeometry relative="1" as="geometry">
            <mxPoint x="530" y="1221" as="targetPoint" />
          </mxGeometry>
        </mxCell>
        <mxCell id="AhveICruEw0RoNRh5vqJ-38" value="&lt;font style=&quot;font-size: 14px;&quot;&gt;bool1&amp;nbsp;â†“ bool2&lt;/font&gt;" style="rhombus;whiteSpace=wrap;html=1;fontSize=16;" vertex="1" parent="1">
          <mxGeometry x="200" y="1140" width="80" height="80" as="geometry" />
        </mxCell>
        <mxCell id="AhveICruEw0RoNRh5vqJ-39" value="print True" style="rounded=1;whiteSpace=wrap;html=1;fontSize=16;" vertex="1" parent="1">
          <mxGeometry x="530" y="1120" width="80" height="40" as="geometry" />
        </mxCell>
        <mxCell id="AhveICruEw0RoNRh5vqJ-40" value="print False" style="rounded=1;whiteSpace=wrap;html=1;fontSize=16;" vertex="1" parent="1">
          <mxGeometry x="530" y="1201" width="80" height="40" as="geometry" />
        </mxCell>
        <mxCell id="AhveICruEw0RoNRh5vqJ-44" value="print Program End" style="rounded=1;whiteSpace=wrap;html=1;fontSize=16;" vertex="1" parent="1">
          <mxGeometry x="650" y="1120" width="120" height="120" as="geometry" />
        </mxCell>
        <mxCell id="AhveICruEw0RoNRh5vqJ-45" style="edgeStyle=none;curved=1;rounded=0;orthogonalLoop=1;jettySize=auto;html=1;exitX=1;exitY=0.5;exitDx=0;exitDy=0;entryX=-0.008;entryY=0.842;entryDx=0;entryDy=0;entryPerimeter=0;fontSize=12;startSize=8;endSize=8;" edge="1" parent="1" source="AhveICruEw0RoNRh5vqJ-40" target="AhveICruEw0RoNRh5vqJ-44">
          <mxGeometry relative="1" as="geometry" />
        </mxCell>
        <mxCell id="AhveICruEw0RoNRh5vqJ-46" style="edgeStyle=none;curved=1;rounded=0;orthogonalLoop=1;jettySize=auto;html=1;exitX=1;exitY=0.5;exitDx=0;exitDy=0;entryX=0.008;entryY=0.167;entryDx=0;entryDy=0;entryPerimeter=0;fontSize=12;startSize=8;endSize=8;" edge="1" parent="1" source="AhveICruEw0RoNRh5vqJ-39" target="AhveICruEw0RoNRh5vqJ-44">
          <mxGeometry relative="1" as="geometry" />
        </mxCell>
      </root>
    </mxGraphModel>
  </diagram>
</mxfile>
